<?xml version="1.0" encoding="utf-8"?>
<!-- Generator: Adobe Illustrator 22.0.1, SVG Export Plug-In . SVG Version: 6.00 Build 0)  -->
<svg version="1.1" id="Livello_1" xmlns="http://www.w3.org/2000/svg" xmlns:xlink="http://www.w3.org/1999/xlink" x="0px" y="0px"
	 viewBox="0 0 1920 1080" style="enable-background:new 0 0 1920 1080;" xml:space="preserve">
<style type="text/css">
	.st0{fill:#FFFFFF;}
</style>
<g>
	<path d="M826,525c-1.7,0.4-19.5-11.8-18.9-6.4c0.1,1.2,6.8,4,7.5,4.3c4.1,2,8.1,4.3,11.7,7.1c8.2,6.3,16.9,10.9,23.4,19
		c5.2,6.6,12.5,12.6,16.5,19.2c1.6,2.6,4.3,4.8,5.7,7.5c0.5,0.9,0.4,2.6,0.9,3.7c0.9,1.9,2.7,3.6,4,5.3c2.9,3.8,5.1,8,8,11.7
		c2.3,3.1,5.4,4.5,8.2,7c2.4,2.1,4.4,4.8,6.9,6.9c2.2,1.9,3.6,4,5.8,5.9c3.1,2.5,7.4,3.8,10.9,5.7c2.7,1.5,8.1,7.3,11.5,6.1
		c4.1,3,8.8,3.5,13.5,4c2.7,0.3,9.2,0.2,11,2c1.6-0.2,16.3-0.8,16.3-1.5c-0.1-1.1-9.3-3-10.1-3.7c-2.2-2-2.6-5,1.3-5.1
		c0.7,0,5.2,2,6.1,2.3c1.8,0.5,4.4,1.6,6.2,1.9c4.3,0.8,9,0.5,13.4,1.2c7.9,1.2,15.6,2.9,23.8,3.2c5,0.1,10.8-0.4,15.6-1.6
		c4.6-1.1,9.1-4.8,13.9-4.6c9.6-5.3,19-8.9,27.1-16.6c7.8-7.4,15.4-18.1,16.6-29.1c2.3-21.3-7.3-42.9-22-57.9
		c-8.2-8.4-12.7-18.3-23.8-23.4c-1.6-0.7-12.7-5.3-10.6-7.7c2.5-2.9,12.9,3.9,15.2,5c4.5,2.2,9.9,6,12.7,10.3c1.2,1.8,1.3,3,2.8,4.9
		c1.6,2,3.9,3,5.6,4.7c7.1,6.8,13.1,17.7,17.3,26.6c5.5,11.8,8.9,24.4,6.2,37.4c-1.4,6.9-3.3,13.7-6.7,19.9
		c-2.8,5.1-8.6,8.7-10.8,13.9c-2.3,0.6-3.6,3-5.4,4.4c-2.7,2-6,3.4-8.9,5.1c-2.5,1.4-6.2,2.7-7.3,5.3c-1.2,2.6,0.2,7.4,0.2,10.2
		c-0.1,6.9-2.7,13.4-4.8,19.8c-1.9,5.7-4.1,12.4-8.2,17c-1.5,1.7-11.3,8.9-12.3,5.1c-0.9-3.2,8.4-7,10.2-9.6
		c3.2-4.3,5.8-11.3,7.2-16.4c0.8-3.2,1.6-6.3,2.5-9.5c0.6-2.3,0.1-7,2.1-8.7c-1.2-3.8-1-5.6-5-5.7c-4-0.1-8.3,2.6-12.2,3.6
		c-8.8,2.1-17.4,0.9-26.3,1.3c-4.4-2.6-10.2-0.8-14.4,0.5c-3.2,1-9.4,0.6-11.6,3.5c-9.9,0-19.7-0.8-29.3-2.2
		c-11-1.6-19.9-6.5-29-12.2c-2.1-1.3-9.7-6.5-12.3-5.9c-2.6,0.7-3.5,7.8-4.5,10.2c-1.9,4.1-2.5,3.9-6.7,5.2
		c-1.6,0.5-3.7,1.7-5.4,1.7c-2.3,0-3.9-2.1-6.2-0.4c-3.7,2.7-3.7,12.3-4.4,16.3c-0.9,5.1-0.8,10.6-1.2,15.8
		c-1.2,13.4-0.9,27.6-0.4,41c0.8,0.9,1.1,1.9,1,2.9c-0.5,0.5-0.9,1-1,1.7c-0.1,2-0.1,4.1,0,6.2c0.2,3.9,0.6,6.9,1.1,11
		c0.7,6.3,1.2,12.7,1.9,19.1c0.3,3.5,2.2,10-0.9,12.9c-0.1,4.6-1.6,8.6-0.8,13.3c0.8,4.4,3.3,7.8,2.4,12.4
		c-1.6,8.2-7.5,16.3-12.2,23c-2.2,1-3.5,3.1-5.4,4.4c-1.9,1.3-4.1,2.2-6.2,3.4c-5.7,3.3-10.8,2.6-17,4.2c-5.3,1.3-12.6,3.1-11.8-4.8
		c0.6-6.2,5.7-12.4,9.8-16.7c4.3-4.5,9.3-8.5,13-13.5c1.2-1.6,7.1-9,5.9-11.2c-1.2-2.3-3-0.4-4.3,0.2c-2.2,0.9-5.2,1.7-7.2,3.2
		c-3.6,2.8-7.4,11.3-6.4,15.8c-1.2,1-1,2.7-1.9,3.8c-1.1,1.3-2.6,2-3.8,3.2c-2.5,2.7-4.7,6.3-6.8,9.4c-5.4,8-10.6,16.5-17.7,23.1
		c-4.6,4.3-15.8,17.5-23.5,12c-7.4-5.3,4.5-21,8.1-25.6c0.3-3.8,5-5.5,4.6-9.6c4.1-4.4,6.3-10.7,9.5-15.7c3.3-5,5.2-12.3,9.5-16.4
		c0.2-1.8,5-9.2,2.3-10.4c-0.9-0.4-8.9,7.2-10.4,8.6c-2.3,2.3-1.4,1.8-2,4.8c-0.3,1.8,0.1,3.1-2,4.2c-4.3,2.2-7.8-2.5-7.9-6
		c0-1.7,0.8-3.4,0.8-5.1c0-2.5-0.8-4.8-0.9-7.3c-0.1-1.5,0.5-4.1,0.1-5.6c-0.5-1.8-1.7-2.5-2-4.3c0.8-1,1-2,0.7-3.1
		c-0.1-1-0.4-2.1-0.7-3.1c-0.3-2.4-0.9-4.9-1.2-7.2c-0.4-4.1-2.4-8.3-2-12.5c-1.1-0.9-1.6-5.7-1.8-7.3c-0.4-2.9,0.6-5.9-1.7-8.3
		c0-1.9-0.8-3.7-1.1-5.5c-0.4-2.2,0.3-3.6,0.4-5.6c0.1-1.5-0.5-2.6-0.5-4.1c-0.1-2.6,1-4.8,1.2-7.3c0.1-2-0.7-3.7-0.8-5.6
		c0-2.2,0.9-4,1.3-6.2c0.8-5.3,1-10.6,2.3-15.8c3.7-14,6.8-30,19.9-39.1c2.9-2,6.7-2.8,6.9-6.5c0.1-1.3-0.8-3.9-1-5.4
		c-0.3-2-0.1-3.8-0.1-5.7c0-4.6,0-9.3,0.5-14c0.4-3.8-0.5-10.2,2.4-13.1c1-1,3.2-2.4,4.3-3.2c1.5-1.1,2.8-2.5,5-1.7
		c5,1.7,0.6,5.8-1.6,7.6c-6.6,5.3-6.9,14.7-6.7,22.8c0.2,6.6,1.4,13.2,2.5,19.7c0.8,4.8,3.2,9.1,4.3,13.9c1.9,8.4-0.2,20.6,5.1,28
		c0.1,2.9,2,4.8,3.3,7.2c1.6,2.9,2.1,5.1,2.1,8.6c0,3.8,0.1,7.3,0.6,11c0.3,2.6-0.4,6.8,0.3,9.1c0.4,1.4,1.7,2.4,2.2,4
		c0.7,2.2,1,4.7,1.6,7c1,3.7,3.6,14.4,0.2,17.4c0.7,3.6-0.7,8.6-0.9,12.3c-0.1,2.3-0.6,4.3-1.1,6.5c-0.2,0.8-0.9,1.6-0.9,2.5
		c-0.1,0.8,0.8,2.3,0.8,2.7c-0.5,5.4-5.4,17.5,5.2,11.5c6.7-3.7,11.5-10,18.2-13.6c2.4-1.2,5.6-1.7,7.7-3.8c3.2-3.2,1.5-5.5,1-9.2
		c-1.3-9.4,0.1-19.4-1.1-28.7c-0.3-2.6-1.6-4-1.2-6.8c0.2-1.9,1.2-3.6,1.2-5.5c0-1.2-0.9-2.1-0.9-3.4c0-1.3,0.7-2.2,0.8-3.4
		c0.2-2.1-0.5-3.3-0.8-5.4c-1.5-9.8,0.5-20.9,1.1-30.7c0.3-4.7,1.5-9.8,2.8-14.3c1.3-4.3,2.9-9.9,4.8-13.9c1.4-3,4.2-5.1,7.2-4.8
		c1.7,0.2,2.9,2.4,5,1.5c1.9-0.8,2-3.2,2.5-5c0.3-1.3,4.5-11.8,1.3-12.6c-1.6-0.4-2.3,4.4-3.5,5.6c-1.3-1.4-1.1-1.9-1.5-3.7
		c-0.2-0.8,0-3.8-0.3-4.3c-1.1-2-2.7-2.2-4.6-3.5c-2.2-1.5-3.8-3.8-5.8-5.7c-3.7-3.5-7.6-3.9-11.9-6c-2.5-1.2-4.6-3.4-7.4-4.2
		c-2.8-0.9-5.9,0.3-8.1-2c-4-4.1,2.6-3.6,5.9-3.4c4.1,0.3,10.3,1.5,13.8,3.4c4.1,2.2,6.4,3.5,2.8-1.6c-1.5-2.1-3.1-5.6-5.1-7
		c-2.7-1.8-4.2-0.2-7.1,0.2c-11.9,1.4-23.3,1.3-32.4-7.9c-8.7-8.7-9.3-21.7-16.3-31.2c-2.3-3.2-4.8-4.6-6.6-8.2
		c-2.6-5.2-7.2-6.5-12.9-8.2c-3.8-1.1-6.9-1.5-10.3-4.3c-3.8-3.2-8.2-9.7-9.4-14.7c-0.7-2.9,0-4.9-2.1-7.2c-1.9-2.1-5.2-3.1-7.7-4.5
		c-1.5-0.9-5.5-5.2-7-3c-1,1.4,1.4,2.5,0.9,4c-1,3.1-4.2,0.9-5.6-0.4c-3.4-3.3-0.6-2.1,0.3-5.2c0.8-3-1.6-4.2-4.2-5.9
		c-1.1-0.7-6-4.5-6.9-2.8c0.4,0.2,2.2,7.8,1.9,8.4c-1.1,2.4-3.2,0.4-4.9-0.2c-2.5-0.9-3.7-1.2-4.3-4.1c-0.7-3.1-0.3-1.5,2-3.9
		c1.6-1.6,2.4-1.8,1.1-3.7c-0.3-0.4-4.8-2.8-4.9-2.8c-1.9,0-5.3,4-7,5c-4.3,2.3-12.2,5.6-13-1.4c-0.4-3.7,1.5-5,2.7-7.9
		c0.9-2.3,1.1-4.1,2.3-6.4c3.2-6.2,6.4-12.1,11.3-17.2c3.2-3.4,6.1-8.4,11.3-9.3c1.1-2.2,3.9-1.9,5.7-0.7c2.5,1.6,2.5,3.7,2.7,6.6
		c0.2,3.6-1.2,8.8,0,12.1c0.8,2.2,1.4,2.3,3.6,3.4c2.4,1.1,3.1,3.1,4.4-0.2c0.8-1.9-1.3-6,2.3-6.1c3.8-0.1,8.8,12.3,0.2,7.2
		c-0.7-0.4-0.6,3.6-0.6,3.7c0.4,1,1.4,1.1,2.1,1.9c1.6,1.6,5.9,5.8,8.4,5.1c2.9-0.9,1.7-4.8,3.9-5.8c3.3-1.5,4.6,2.4,3.6,4.4
		c-0.6,1.4-3.2,1.4-3.1,3.7c0.1,1.6,0.7,1,1.7,2.1c2.5,2.6,8.5,5.9,12,6.7c1.8,0.4,3.5-0.1,5.2,0.5c0.9,0.3,3.2,2.2,3.5,2.2
		c0.9,0.2,1.8-0.9,2.5-0.8c1.8,0.4,3.5,0.8,5.3,1.2c3.3,0.6,6.3,0.9,8.9,3.5c2.7,2.9,3.6,7.1,6.3,10.2c6.3,7.2,17.1,12.2,25.4,16.5
		c4.7,2.5,9.7,4.2,14.7,5.8c4.1,1.3,10.7,5,15.2,3.9c3.1-0.8,5.5-5.2,7.5-7.9c3.2-4.3,5.5-8.7,9.6-12.4c8.3-7.6,18.5-10.3,29.2-11.7
		c5.7-0.7,11.2-0.9,16.9-1.7c2.7-0.4,5.5,0,8.1-0.4c3-0.5,5.3-1.8,8.2,0.1c3.2-2.9,6.6-0.6,9.7-2.6c2.9-1.9,4-8.3,4.9-11.6
		c2.2-7.9,3.2-16.4,4.3-24.3c1.1-7.8,1.1-16.7,4.3-24.2c0.6-1.3,2.2-5.1,3.8-5c2.9,0.4,0.2,8.6,0.4,10.2c-4,5.8-3.3,15-4.2,21.5
		c-0.5,3.9-0.9,7.9-1.4,11.7c-0.3,2.1-1.5,9.6-3.2,11c-0.3,6.2-5.6,9.9-6.8,15.7c-1.4,6.6,3.6,7.9,7.7,11.8c2.8,2.7,4.9,5.9,8.9,6.4
		c5.5,0.7,11-2.7,16.6-1.5c2.8,0.6,4.8,2.1,7.7,1.4c2.5-0.7,4.6-3.2,6.5-4.9c1.5-1.4,6.7-7.1,9.2-6.8c3.7,0.5-6,8.8-7.1,9.8
		c-2.2,2.2-4.2,4.6-6.6,6.5c-2.1,1.6-4.7,2.6-6.5,4.7c-3.9-0.3-4.3,4.4-3.4,6.6c1.7,3.9,3.1,4.1,2.1,8.5c-0.4,1.7-2.4,8.4-4.2,4.7
		c-1.3-2.7,2.5-6.2,0.6-9.4c-1-1.6-4.2-3.9-5.6-1.5c-1.4,2.4,2.4,2.3-0.4,4.1c-0.6,0.4-2.7-0.7-3.8-0.3c-0.6,0.2-2.4,2.2-3.1,2.8
		c-3.9,3.3-6.2,4.9-4.9,10c0.9,3.4,1.1,6.4,3.9,8.5c3.4,2.6,7.1,4.5,10.4,7.3c6.1,5.3,10.9,11.1,16.5,16.7c5.6,5.7,6.3-6.8,9.6-4.1
		c5.6,4.6-7.7,15-10.6,17.2c-7.3,5.5-21.8,6.2-30,2c-3.1-1.6-3.2-3.7-6.2-1.8c-2.9,1.8-5.6,8.6-7.2,11.5c-1.4,2.5-3.4,4.4-4.7,6.9
		c-1.4,2.7-1.5,6-3.2,8.9c-1.5,2.4-7.8,11.7-8.1,4.8c-0.1-2.9,4.5-5.1,1.9-7.4c-1.7-1.5-6.8,1-3.1-3c2.2-2.3,5.1,0.1,2.9-3.9
		c-1.8-3.3-6.8-6.4-10.1-7.9c-3.2-1.6-6.3-1.8-9.8-2.4c-5.6-0.9-8.5-3.5-13-6.5c-2.6-1.7-5.6-2.4-7.8-4.7c-2.7-2.8-3.2-5.6-4-9.1
		c-1.8-8.4-16.4-13.5-23.2-17.8c-9.5-5.9-18.9-11.8-28.5-17.5c-4.1-2.5-8.1-5.1-12.2-7.7c-3.1-1.9-10.3-4.1-11.1-7.6
		c0.2-0.2,0.3-0.4,0.5-0.5c4.6-0.6,10.2,4.4,13.9,6.5c6.2,3.5,12.3,7.2,18.4,11c11.9,7.4,24.2,14.2,36,21.7
		c-13.6-8.7-27.7-16.6-41.5-25c-6.9-4.2-13.9-8.3-21-12.3c-5.9-3.3-11.4-8-17.4-10.9c1.3-0.8,6.4,4.3,6.5,6
		C826.2,524.6,826.1,524.8,826,525z"/>
	<path d="M1027,475.7c0-8.7,1.1-16.8,3.7-25.2c0.6-2.1,5.2-9.4,4.5-11.2c-1.4-3.6-8.7,0.2-10.4,1.4c-6.7,4.4-8.1,12.3-13.8,17.6
		c-3.4,3.1-5.9,2.9-10.2,3.7c-1.6,0.3-5.8,1.8-7-0.8c-4.1-0.2-7.5-4.7-9.3-8c-3-5.6-1.3-9.4,1.8-14.2c4-6.1,6.1-8.3,1.2-14.2
		c-3.2-3.7-9.7-8.4-11.3-13c-0.6-1.8,2.7-9.5-0.4-10.3c-1.9-0.5-6.6,6.9-8.9,8.1c-3.4,1.9-6.8,3.5-10.4,2.7
		c-0.9-0.2-4.4-2.3-5.1-2.1c-2,0.7-2.2,6.7-2.4,8.1c-1.7,12.1-2.1,24.5-5,36.6c-0.7,2.8-1.7,5.4-2,8.3c-0.4,2.9,0.6,6.8-0.2,9.6
		c-1.4,4.8-8.8,4.4-13,4.3c-5.9-0.1-6.8-1.8-5-7.7c0.9-3,2.6-5.4,3.9-8.2c1.2-2.5,1.5-5.1,2.5-7.7c2-5.1,5.1-8.6,5.9-14.3
		c0.8-5.3,2.5-10.6,2.8-15.8c0.2-3.5-0.1-7,0.4-10.6c0.5-3.4,2-6.7,2.6-10c0.9-5.4-1.2-11.7-1-17.4c0.3-5.9,3.2-11,3.9-16.5
		c0.8-5.8,2.6-12.7,2.4-18.5c6.2-3.3-0.9-12.3-3.8-14.8c-4.5-3.8-9.2-11.9-8.5-18.1c0.7-5.9,7.4-10.1,12.9-10.4
		c2.2-0.1,6.2,0.9,7.9-0.6c1.3-1.1,3.2-6.1,3.9-7.9c2.4-6,3.8-11.9,6.4-17.7c2.9-6.6,5.6-12.5,10.6-18c2.7-3,6-5.6,8.7-8.6
		c2.5-2.8,4-6.1,6.3-9c3.8-4.9,11.6-11.4,18-12.2c1.6-2.1,4.6,0.3,6.2-1.9c2.4,0.7,6.6-0.9,9.2-1c3.6-0.1,7.8-0.6,11.2,0.1
		c6.5,1.4,12.4,7.5,17.7,11.3c10.4,7.5,15.9,18.9,23.2,29c4.2,5.8,7.9,10.2,10.5,16.9c2.4,6.2,4.1,12.9,4.5,19.6
		c0.4,7.4,0.1,15.1,1.1,22.4c0.5,4.1,1.2,8.3,1.9,12.4c0.4,2.3,2.7,6.7,2.1,8.9c3.6,3.6,2.5,14.3,1.7,18.8
		c-1.1,6.2-2.9,12.5-4.4,18.8c-1.9,7.7-1.2,15.4-1.5,23.3c-0.3,8.8-0.9,17.5-1,26.3c-0.1,13.2-2,26.1-1.4,39.2
		c0.2,4.9,0.3,10.8-3.9,13.9c-1.8,1.3-6.5,3.7-8.6,2.2c-1.6-1.2-2.5-6.8-2.2-9.2c0.2-2.2,1-4.1,1.1-6.6c0.2-2.8,0.8-5.7,1.2-8.5
		c0.3-1.9,1.7-4.1,1.9-5.7c0.5-3.5,0-7.3,0.4-10.9c0.8-6.8,1.8-13.5,2.6-20.1c0.9-7.8-0.3-16.3-0.1-24.2c0.1-3,1.7-6.2,0.4-8.9
		c-1.3-2.6-5.3-4.7-7.6-6.4c-1.4-1.1-3.8-4.1-5.7-2.9c1-0.6,0.1,10.2-0.1,11c-3.5,13.5-9.5,29.5-23.6,34.3
		c-13.2,4.5-14.2,25.1-15.6,36.8c-0.3,2.6,0.7,5,0.9,7.1c0.1,1.4-0.8,3.3-0.9,5c-0.1,1.5,0,7.8-3.3,4.8
		C1025.8,486.7,1027,477.8,1027,475.7z"/>
	<path d="M986.2,698c-5.9,0-11.4,0.8-17.2,1.5c-5.3,0.6-13.7,1.7-18.5-1.5c-2.8,1.7-9,0-12.2,0.1c-4.3,0.1-8.7-0.1-13.1-0.1
		c-2.6,0-5.4,0.4-7.5,0.4c-3.9,0-8.1-2.1-12.1-1.4c-4.2-1.7-10.3-2.2-14.7-3c-3.6-0.7-10-0.9-12.6-4.3c-2.2-2.9-0.9-4.6,2.4-4.3
		c1.8,0.2,3.4,1.7,5.1,2.2c1.8,0.5,3,0,4.8,0.3c8.3,1.2,15.9,3.5,24.3,4.4c11.2,1.3,22.5,0.1,33.8,0.7c5.2,0.3,10.2,1,15.5,1.1
		c5,0,9.7-0.7,14.7-1c6-0.3,13,1.1,18.9,0c4.7-0.9,9.6-3.2,14.3-4.4c2-0.5,6.9-3.7,8.6-2.3c3.6,3-6.2,5.4-7.6,6
		c-1.6,0.6-2.7,1.6-4.4,2.2c-2.3,0.8-5,1-7.3,1.7C996.2,697.7,991.7,697.7,986.2,698z"/>
	<path d="M829,527c-1.6,0.2-2.6-0.4-3-2c1.8-1.3,2.7-0.4,3.2,1.3C829.2,526.5,829.1,526.8,829,527z"/>
	<path d="M831,528c-0.8-0.2-1.9,0.5-2-1C830.2,526.4,831,526.3,831,528z"/>
	<path class="st0" d="M813.7,634c8.8-0.1,8.8,19,9.4,25.5c0.5,5.4,1.7,11.5,3.5,16.7c0.8,2.3,2.2,4,3.4,6.1c1.8,3.1,1.4,2.6,1.4,5.9
		c0.1,3.2,0.4,6,0.6,9.6c0.2,2.3-0.2,4.7,0,7c0.1,1.1,0.4,2.1,0.8,3.1c0.4,1.2,0.2,2.3-0.7,3.2c0.4,3.7,3.9,5.8,3.3,10.2
		c-0.2,1.5-0.8,2.8-0.8,3.9c0.1,1.6,1.6,3.4,1.5,5.4c-0.3,8.1-5.3,12.1-10.7,17.7c-3,3.1-5.6,7-8.7,9.8c-2.4,2.1-3.3,2.5-5.1,5.2
		c-1.6,2.4-3.6,4.7-5.8,6.6c-0.5,0.4-0.6,2.3-1.4,2.2c-2.8-0.1-2.1-3.8-2.2-5.5c-0.5-5.8-2.3-11.2-2.9-16.9
		c-0.5-5.2-3.1-9.4-4.1-14.3c-0.6-3-1-5.8-1.7-8.8c-0.5-2.1,0-5.1-1.2-6.9c0.3-4.3-0.6-8.5-0.9-12.7c-0.4-4.6,0.2-9.1,0-13.7
		c-0.3-8.1,1-15.3,2.8-22.9c1.5-6.8,3-14.1,6.3-20.1C802.2,646.3,806.9,631.7,813.7,634z"/>
	<path class="st0" d="M927.8,495.2c2.7-0.6,5.9-0.6,8.6-1c2.2-0.3,5.6,0.2,7.5-1.2c4,0.6,8.9,0.8,13,1.2c1.4,0.1,3.3-0.9,4.1,0.6
		c0.7,1.2-1,1.9-1,2.3c0.1,2-1.5-0.7-0.4,2c0.5,1.3,3.2,2.1,3.9,3.7c1.3,2.8,0.6,10.5-1,12.9c-0.5,0.8-2.4,1.7-2.7,2.2
		c-1,2,0.1,1.1,0.9,3.2c1.7,4.2,1.1,7.1,0.2,11.5c-0.6,3-0.4,4.5-4.2,5.6c-2.3,0.6-7.7,0.8-9.2-1.3c-4.8,0.1-9.7-3.5-14.1-5.1
		c-5.5-2-11.5-3.4-17.4-3.9c-5.7-0.5-11.4,0.1-17.1-0.1c-2.4-0.1-4.8-0.2-7.1-0.7c-1.2-0.2-6.7-0.7-7.6-1.3
		c-3.4-2.6,0.3-7.4,2.5-10.6c2.2-3.3,5.7-8.1,9-10.5c3.7-2.8,9.4-5.3,13.8-7C914.6,496,922.6,493.7,927.8,495.2z"/>
	<path class="st0" d="M855,530c-3.6-0.5-6.5-3.2-9.6-4.9c-2.8-1.5-7.2-2-9.4-4.2c-1.4-1.2,3.4,1.7,4.1,2.1c0.5,2.4,4.4,3.7,6.3,4.9
		c3.8,2.3,7.7,4.5,11.5,6.8c3.4,2,7.1,3.8,10.3,6c1.4,0.9,7.5,3.6,8.1,5.2c2,0,2.7,3,5.1,2.2c3.3,4.4,10.9,6.4,15.5,9.2
		c2.6,1.6,5,2.9,7.7,4.3c1.1,0.6,5.2,4.2,6.2,4c3.3-0.6,6.2-9.9,9.1-11.9c1.7-1.2,4.1-0.8,5.9-2.1c1.6-1.2,1.1-3.2,3.5-2.9
		c2.1,0.2,3.7,3.8,5,5c2.3,2.2,1.7,1.5,4.5,2.2c4.5,1.1,12.7-0.9,15.5,3.7c0.8,1.3,1.7,4.1,2,5.6c0.5,2.3-0.7,4-0.2,6.3
		c0.6,2.3,3.6,4.3,5,6.1c2,2.6,4.3,6,5.9,8.8c2.6,4.7-2.2,9.4-4.5,13.6c-1.1,2-2.5,4.2-4,5.9c-2.3,2.5-1.4,2.6-4,0.1
		c-3.4-3.3-4.9-6.3-9.4-8.6c-5.6-2.9-11.5-1.5-17.1-4c-4.9-2.2-9.9-6.8-13.6-10.6c-4.6-4.7-1.3-10.8-5.2-14.9
		c-1.1-1.1-4.5-2.6-6.1-3.7c-2.8-1.8-5.8-3.1-8.7-4.6c-6.8-3.5-13.1-7.6-19.6-11.6c-3.5-2.1-7.1-4.1-10.4-6.5c-3-2.1-5.8-3.2-8.9-5
		c-5.6-3.3-11.5-7-17-10.7c-3.7-2.5-7.4-5-11.2-7.4c-3.3-2.1-8.6-3.7-11.4-6.3c-2.7-2.5,0.1-2.7-1.2-5.2c-0.1-0.3-4.7-2.3-5-2.1
		c-0.7-2-3.9-1.4-4.1-3.9c3.5-0.7,8.9,4.4,11.6,6c4.8,2.8,9.7,5.4,14.4,8.3C834.1,517.1,855.7,527.1,855,530z"/>
	<path class="st0" d="M947,552c-4,1.2-9.3-1.2-12-3.7c-5-4.5-7.1-5.6-13.1-1.7c-2.1,1.4-4,2.6-5.6,4.7c-1.2,1.7-1.6,4.1-3.4,5.3
		c-3.8,2.5-5.9-2.2-10.5-2.6c-0.8-1.8-3.5-2.2-5.1-3c-2.5-1.4-4.6-3.5-7.1-4.9c-4.5-2.5-8.5-4.3-12.8-7.1c-5.9-3.8-12.4-7-18.5-10.4
		c-1.4-0.8-15.1-7.9-14.7-9.2c0,0,23.4,6.9,25.7,7.6c3.8,1.3,5.5,2.8,9.7,2.8c2.3,0,8.6-0.1,10,2.1c2.9-0.6,5.8,0.7,8.6,1.2
		c3.7,0.6,7.6,0.7,11.3,0.8c4.3,0.1,11.8,0.8,15.5,3c7-0.6,14.7,3.7,21.1,6c3.5,1.2,7,2.6,10.5,3.8c2.9,1,7.2,1.5,9.1,4.2
		c3.4,0.6,5.8,4,8.2,6.3c2.8,2.6,5.7,4.8,8.7,7.1c2.6,1.9,4.8,3.8,6.3,6.7c0.3,0.7,3.3,5.9,3.1,6.7c1,1.4,4.6,9.2,4.1,10.5
		c-0.9,2.2-5.5,2.7-7.6,2.8c-3.8,0.1-7.8-1.3-10.7-3.7c-2.6-2.2-5.3-2.7-7.9-4.6c-2.5-1.9-4.5-6-6.2-8.7c-2.1-3.4-1.3-6.1-1.7-9.9
		C961.2,555.6,955,552,947,552z"/>
	<path class="st0" d="M853.2,575c-6.7,0-10.4-0.5-16-4.2c-6-3.9-9.2-8.9-12.4-15.2c-2.8-5.5-5.7-10.7-8.8-16c-1.8-3-2.6-2.7,0.4-5.4
		c0.6-0.5,4.4-4.1,5.1-4.1c1.9-0.1,5.4,4.1,6.9,5.2c2.5,1.8,5.4,3.2,7.8,5.2c4.8,4,9.8,8.4,13.9,13.2c4.5,5.2,9.3,10.2,13,16.1
		c1.1,1.8,2.5,2.5,1.2,4.2C862.7,576.1,855.4,575,853.2,575z"/>
	<path class="st0" d="M745,450.2c-0.1,3-1,5.1-1.5,7.9c-0.8,4.2,0.5,2.7,2.6,6.1c0.9,1.5,0.5,3.3,1.5,4.8c1,1.5,3.8,2.6,5.2,4.2
		c0.3,0.4-9.6-2.7-10.3-2c-2.6,2.2,1.5,2.6,2.6,2.8c2.9,0.5,4.3,0.3,7,2.1c2.5,1.6,1.8,1.1,2.8,3.4c0.4,1,1.9,3.9,1.4,4.7
		c-1.2,1.8-10.3-4.3-11.8-6c-2.1,0.2-1.2-2-2.4-2.6c-1.6-0.9-3.3-0.3-5.1-0.8c-1.7-0.5-2.8-1.6-4.4-2.3c-2.8-1.4-0.9-2.1-4.1-0.9
		c-2.6,1-7.8,7.5-11.2,6.5c-3-0.9,0.5-8.3,2.5-9.7c0.6-6.1,7.1-13.7,10.8-18.2c2.3-2.8,4.8-5.8,7.6-8.1c3.6-2.9,2.8-1.2,6.5,0.5
		C744.1,443,745,449.2,745,450.2z"/>
	<path class="st0" d="M787.4,483c1.9,0.4,4.7,0.6,2.6,3c-1.6,1.8-4.8,0.6-6.7,1.7c-1.2,0.7-3.8,3.1-3.1,4.7c0.9,2.4,1.5,0.7,2.4,0.5
		c2.7-0.7,4-2.7,7.3-2.9c1.7-0.1,7.4-0.9,7.1,2.3c-0.4,4.6-8.1,1.2-10.2,4.4c-3.4,5.3,5.7,2,7.5,1.7c1.3-0.2,5.9-1.3,5.7,1.7
		c-0.1,1.6-4.9,2.4-6,3c-4.8,2.3-8.5,6.5-1.5,8.1c5.2,1.2,11.4-1.4,16.4,1.4c-3.4,2.8-9.6-0.4-12.1,3.1c-1.7,2.4-0.6,3.6,1.8,4.4
		c1.3-0.5,2.6-0.5,4,0c1.2,0.5,2.4,1.2,3.4,2c2.6,1.4,12.9,4.2,9.5,7.9c-3.4,3.7-9.5-4-12.6-5.6c-4.7-2.4-10-2.7-14.6-5
		c-4-1.9-7.9-7-9.8-11C774.2,499.4,773.4,483.3,787.4,483z"/>
	<path class="st0" d="M824,789.9c0.3,5.6-1.8,12.6-4.7,17.5c-2.3,4-3.9,7.1-6.9,10.5c-3.9,4.6-5.6,9.5-10.6,13.3
		c-2.3,1.7-11.1,8.4-9.2,1.6c0.5-1.9,2.7-3.9,3.6-5.7c1.3-2.6,2.6-4.8,4.1-7.3c2.7-4.3,5.6-8,8.2-12.4c2.9-4.8,5.6-9.7,8.3-14.6
		C819.6,788.2,824,778.7,824,789.9z"/>
	<path class="st0" d="M868,776.1c-1,4.7-1.4,8.9-3.9,13.2c-1.8,3.1-2.4,5.8-4.3,9c-2.3,3.9-4.7,8.5-8.7,10.9c-1,0.6-3.2,2.1-4.2,1.2
		c-1.9-1.7,0.2-1.6,0.6-3.3c2.1-8.6,9.4-15.8,13.2-24.2c0.9-1.9,3.6-13.4,4.6-13.6C867.6,768.9,868.9,774.2,868,776.1z"/>
	<path class="st0" d="M977,516c2.4-0.5,11.8,6.7,12,9c0.2,3.8-11,3.8-13.1,4.2c-3.2,0.6-3.4,1-5.7-1.8c-1-1.3-4.3-5-4.5-6.4
		C965,516.7,973.5,516.6,977,516z"/>
	<path class="st0" d="M831,528c-0.1-1.5-1.2-0.8-2-1c-0.4-1.6-1.4-2.2-3-2c-1.7-3.2-5.2-4.4-8.2-6c-1.5-0.8-6.9-3.7-3.7-5
		c2-0.8,8.7,4.7,10.5,5.8c4.2,2.6,8.4,5.1,12.6,7.7c7.3,4.5,14.6,9,21.9,13.3c3.5,2.1,6.7,3.9,9.9,6.4c3.2,2.4,9.3,3.9,11,7.9
		c-2.5,1-9.9-4.9-12-6c-4.8-2.8-9.5-5.6-14.2-8.6c-4.2-2.7-8.4-5.3-12.8-7.6C838.5,531.5,833.6,528,831,528z"/>
	<path class="st0" d="M1008,584.9c-0.5,1.6-6,5.5-7.9,4.4c-1.6-0.9-1.1-4.2-1.5-6c-0.7-2.8-2.1-5.4-3-8.1c-1.5-4.6-4.3-8.4-7.8-11.8
		c-3.5-3.4-11.7-6-13.7-10.4c3.1-0.7,7.5,3.9,9.8,5.5c3.6,2.5,7.1,5.1,10.4,8.1C999.9,571.9,1005,577.9,1008,584.9z"/>
	<path class="st0" d="M1002.9,513.4c-1.6,2.4-5.2,4.5-7.7,5.9c-3.5,1.9-3.9,1-7.2-1.8c-7.8-6.7,6-1.8,8.5-5.5
		C998.2,512.9,1001.8,512.3,1002.9,513.4z"/>
	<path class="st0" d="M773,479c-1.1,2.6-8.1-3.6-10.1-4.4c-3.2-1.2-10.1-0.2-11.9-5.1c-1.5-4.2,6.1-0.2,8.5,0.7
		C762.4,471.3,772.3,476,773,479z"/>
	<path class="st0" d="M906.9,570.4c-2.3,2.4-10.7-4.9-12.8-6.4c-3.8-2.7-12.3-4.6-14.1-9c4,0,5.6,2.4,8.9,4.5c2.2,1.3,7,5,9.7,4.6
		C900.9,566.7,904.4,567.9,906.9,570.4z"/>
	<path class="st0" d="M969.4,536c2,0.2,3.9,2.7,3.4,4.7c-0.1,0.6-3.2,3.3-3.7,3.3c-1,0.1-1.8-1.4-2.5-1.7
		C957.3,538.6,969,538.5,969.4,536z"/>
	<path class="st0" d="M895.8,553.8c-2.4,0.7-11.1-5.3-13.5-6.8c-2.5-1.6-4.7-3.4-7.2-4.9c-2-1.1-5.1-1.8-6-4.1
		c4.4,0,10.8,5.3,14.5,7.5C884.5,546.1,896.8,552.8,895.8,553.8z"/>
	<path class="st0" d="M967.2,514.6c-1.4-0.7-0.9-5.5-0.2-6.8c1.2-2.2-0.1-2,2.6-0.7c1.7,0.8,4.2,3.7,3.6,5.2
		C972.2,514.8,969,513.5,967.2,514.6z"/>
	<path class="st0" d="M800.8,487.9c1.5,0.1,12.1,3.8,8.5,6c-0.6,0.4-5.7-2.2-6.5-2.6C802.6,491.1,798.6,487.4,800.8,487.9z"/>
	<path class="st0" d="M828.8,760c-0.2,0-2.5,0.2-2.7-0.3c-0.5-1.5,5.5-8.1,6.8-6.2C834.7,756,831.1,759.8,828.8,760z"/>
	<path class="st0" d="M759,484c1.7,0.7,10.6,5.3,7.3,8.1C764.2,493.8,756.2,483.5,759,484z"/>
	<path class="st0" d="M819.5,506c-1.7,0-13.7-7.2-13.2-7.7c1.4-1.5,7.9,3.3,9.2,4.1C816.4,502.9,821.4,505.8,819.5,506z"/>
	<path class="st0" d="M899.9,555c1.3,0.6,11.4,4.7,10,6.6c-0.7,0.9-10.5-4.5-10.8-6.1C899.2,555.2,899.5,555,899.9,555z"/>
	<path class="st0" d="M810.3,507.8c-1.9,0.4-10.4-3.2-6.2-4.5C805.9,502.8,810.7,507.7,810.3,507.8z"/>
	<path class="st0" d="M968,531.5c0.1,1.6-5.4,4.6-3-1.7c0.2-0.5-0.5-2.4,0.5-2.7C966.5,526.8,968,531,968,531.5z"/>
	<path class="st0" d="M975,535.2c-0.2-1.9,5.1-4.6,5.9-2.8C981.1,532.9,975,540.1,975,535.2z"/>
	<path class="st0" d="M770,482.8c-0.5,4.8-6.8,0-6-1.1C764.5,480.9,769.9,483.9,770,482.8z"/>
	<path class="st0" d="M862,534c-3.2,0.1-5.2-1.8-7-4C857.6,530.9,860.5,531.3,862,534z"/>
	<path class="st0" d="M836.8,816.9c-0.3,1.2-3.6,3.3-3.8,1C832.8,815.6,837.5,813.3,836.8,816.9z"/>
	<path class="st0" d="M866.9,536.4c-0.8,1.8-4.9-1.3-4.8-2.6C862.1,534,866.6,535.5,866.9,536.4z"/>
	<path class="st0" d="M773,494c-0.5,1.4-4,0.1-3.9-0.4C769.5,491.6,772.7,492.7,773,494z"/>
	<path class="st0" d="M974.4,545.1c2.6,1.6,1.6,3.7-1.4,1.4C973.5,546,973.9,545.6,974.4,545.1z"/>
	<path class="st0" d="M768.4,482c-0.4-0.5-0.8-1-1.3-1.6C769.3,479.4,769.3,482.3,768.4,482z"/>
	<path class="st0" d="M774,490.2c-0.2,0.3-0.3,0.5-0.5,0.8c-0.6-0.4-1.1-1-1.3-1.7C772.3,488.6,774,489.2,774,490.2z"/>
	<path class="st0" d="M821.9,506.7c-0.3,0.1-2.4,0.6-1.9-0.7C820.2,505.5,821.8,506.3,821.9,506.7z"/>
	<path class="st0" d="M774.6,486.9c-0.2-0.1-0.4-0.2-0.6-0.4c0.3-0.4,0.6-0.4,1,0C774.9,486.6,774.8,486.7,774.6,486.9z"/>
	<path class="st0" d="M765.5,479c0.4,0.4,0.4,0.7,0,1C765.1,479.6,765.1,479.3,765.5,479z"/>
	<path class="st0" d="M897.4,554.9c-0.1-0.1-0.2-0.2-0.4-0.4c0.4-0.4,0.7-0.4,1,0C897.8,554.6,897.6,554.7,897.4,554.9z"/>
	<path class="st0" d="M973.6,553c-0.7-0.9,0.1-1,0.4,0C973.9,553,973.7,553,973.6,553z"/>
	<path class="st0" d="M754.4,474.1c0.2,0.1,0.4,0.2,0.6,0.4c-0.3,0.4-0.6,0.4-1,0C754.1,474.4,754.2,474.3,754.4,474.1z"/>
	<path class="st0" d="M868.6,538c-0.7-0.9,0.1-1,0.4,0C868.9,538,868.7,538,868.6,538z"/>
	<path class="st0" d="M967,372c0.9-3.2-1.3-5.9-1.1-9c0.2-3.4,0.5-1.4,2.1-4.3c1.3-2.4,1.4-6.9-2-8.2c-5.8-2.3-2.3,5-4.6,6.8
		c-1.6,1.2-4.8-2.5-5.7-4.4c-1.9-3.8-0.4-8.6-2.4-12.8c-2-4.2-5.9-5.7-8.8-9.2c-4.6-5.6-8.8-15.8,0-19.6c3.5-1.5,8.1-2.8,11.2-0.9
		c1.6,0.9,4.9,3.4,6,4.9c0.5,0.6,1.2,4.1,1.5,4.4c3.8,3.1,5.2-2.9,5.7-6.2c0.8-4.4,1.2-6.9,3.2-10.7c2.4-4.7,3.3-10,6.1-14.6
		c2.2-3.8,3.1-5,6.9-6.7c7.3-3.3,15.2-8.5,23.6-8.5c1.9-2.7,16-0.8,19-0.8c6.9,0,12.3,2.5,19,3.9c6.1,1.2,11.3,2.8,15,8
		c1.9,2.8,3.4,5.8,5.5,8.4c0.9,1.1,3.4,5.6,4.8,6.1c-1.6,1.2-0.9,3.8-1.2,5.4c-0.5,2.5-1.8,4.8-2.7,7.2c-0.5,1.2-2.4,5.1-1.8,6.4
		c1.1,2.3,4.5,1.2,6.6,2.2c1.3,0.6,4.5,5.3,5.2,1.5c1-5-6.8-5.5-2.2-10.5c5-5.6,4.9,0.2,5.9,4.4c0.6,2.6,3.8,10.8,0,12
		c-2.1,0.7-3.1-2.2-5.5-0.6c-1.6,1.1-1.5,3.5-1.3,5.1c0.2,2.6,1.5,4.7,1,7.5c-0.4,3-1.9,5.2-2.2,8.4c-0.3,3.5,0.2,8.2,5.5,7.6
		c2.2-0.3,4.6-2.7,3.7-5.1c-0.8-2.1-3-1.5-3.9-3c-1.8-3.1,0.1-6.5,2.4-6c5.9,1.4,5.6,10.4,5.5,14.5c0,0.1,0.3,3.1-0.1,3.9
		c-0.3,0.6-1.8,0.6-1.8,0.6c-0.3,0.6-0.9,2.7-1.4,3.4c-1.8,2.4-8.6,0.3-9.3,2.8c-0.7,2.4,4.9,3.2,6.6,3.5c1.1,0.2,4,0,4.8,0.8
		c1.2,1.3-0.3,5.8-0.8,7.3c-1.7,5.1-5.1,5.7-10,3.3c-4.5-2.2-7.3-8.4-8-1.3c-0.6,6.8-0.1,14.2-1.1,20.8c-0.7,4.6-3.5,12.8-7,15.9
		c0.6,1.5-2.5,6.7-3.2,7.8c-0.8,1.3-2.2,3.1-3.5,4c-1.2,0.8-3.2,0.1-3.8,1.7c-5.1-0.6-10.1,2.6-14.9,3.6c-4.8,0.9-9.1,1.7-12.9,5.3
		c-5.9,5.5-7.1,16.2-15.6,18.7c-4.8,1.5-9.9,0.6-13.7-2.6c-2.3-1.9-6.6-4.8-5.9-8.3c0.2-1.2,3.3-4.2,4-5.4c1.1-1.9,2.3-3.8,3.5-5.6
		c3.8-5.4,1.4-7.2-1.5-12.7c-2.7-4.9-7.1-7.5-10.1-11.8c-2.6-3.7-0.4-9-0.3-13.3c0-3,0.1-7.4-2.8-9.5c-3.9-2.9-4.5,3-5.4,5.7
		c-2.8,7.9-10.5,17.8-19.7,11.9c-4.3-2.7-6.1-6.2-7.2-11.1c-1.6-6.8,1.2-11.9,1.1-18.5c1.7-2,5.9-17.5,7.6-17.4
		c-0.4,0,4.3,4.2,4.7,4.7c3.3,3.3,2.3,5.6,2.8,10.1c0.2,1.6,0.7,6.3,2.3,6.8C968.3,382,967,373.7,967,372z"/>
	<path class="st0" d="M1024.1,267c-5.4,0-16-1.3-20.4,2.8c-5-0.3-10.5,3.1-14.9,5.1c-2.6,1.1-5.4,0.7-7.9,1.8
		c-2.5,1-5.1,3.8-7.1,5.4c-2.8,2.2-4.8,4.6-6.8,7.6c-0.5,0.8-2.6,4.9-3,2.2c-0.3-2.2,3.3-8,4.1-10.1c1.2-3.2,2.1-6.4,4.1-9.2
		c2.8-3.9,5.5-7.6,9.1-10.7c4.9-4.2,7.9-9.3,12-14.2c3.8-4.6,9.7-10.4,15.5-12.1c3.3-1,6.8-0.3,10.2-1.2c4-1.1,7.4-1,11.5-1.2
		c1.7,1.7,3.8,2,5.8,3.1c2.3,1.2,3.4,2.4,5.3,4c2.1,1.7,3.5,1.5,6,2.4c2.4,0.9,4.1,2.8,6.3,4c1.5,3.8,5.5,6.2,8.1,9.2
		c2.4,2.8,3.7,5.6,5.1,8.8c3.4,7.5,11.3,11.3,14.5,18.8c1.4,3.2,2.4,6.4,3.7,9.6c1.4,3.3,1.2,5.8,1.6,9.3c0.9,9.8,4.1,19.2,4,29.1
		c-0.1,8.5,2.2,16.1,2.9,24.6c0.4,4.3,1.4,8.8,1,13.1c-0.1,1.1-1,3.8-1,4.5c0,1.6,1.1,2,1,3.9c-0.5,6.5-6,12.5-5.3,19.5
		c0.1,1.5,1.2,2.8,1.3,4.2c0,1.9-1.1,4.4-1.1,6.4c-0.1,4.3,0.5,8.8,0.2,13.1c-0.3,4.2-1.5,8.3-2,12.3c-0.4,3.5,0.2,7.2,0.1,10.8
		c-0.2,10.3-0.9,20.7-1.2,31.1c0,1.4-1.3,18.2-6,12.4c-1.4-1.7,0.5-9.2,0.8-11.1c0.5-3.9,1-7.7,1.5-11.6c0.8-7,2.1-13.9,2.6-21.3
		c0.7-10.4,1.3-20.9,1.1-31.3c-0.1-8.7,0.1-16.8,1.1-25.3c0.3-2.8,1.6-5.7,2-8.5c0.6-4.7-0.2-10.2-0.2-15c0-5.2-0.2-10-0.8-15.1
		c-0.2-1.7-0.1-3.2-0.1-5c0-3.3-0.8-4.7-1.5-7.5c-1.1-4.3-0.6-8.7-1.2-13.1c-0.8-5.5,0.7-11.3-1-16.7c-2.6-8.5-11.8-13.7-16.2-21.2
		c-2.1-3.4-4.8-7.9-8.2-10.1c-2.2-1.4-7.9-3.7-10.5-3.5c-1-1.7-2.2-0.6-3.6-0.9c-2.8-0.6-5.1-1.1-7.9-2.1
		C1034.3,266.4,1029,267,1024.1,267z"/>
	<path class="st0" d="M931,474c-7.5,0-3-5.4-1.2-10.1c1.2-3.3,2.1-6.7,3.5-9.9c1.1-2.5,3.1-4.4,4.1-6.9c1.2-2.8,1-6.1,1.3-9.1
		c0.4-3.1,1.7-5.8,2.2-8.7c1-5.8,0.6-12,1.4-17.9c0.4-2.6,0.6-9.2,3-5.6c2.8,4-0.8,10.5-1.3,14.8c-0.6,6-0.5,12.2-1.5,18.1
		c-0.4,2.3-0.7,4.6-1,6.8c-0.3,1.8-0.4,6-1.6,7.3c0.7,4.6-1.1,10.6-1.8,15.2C937.4,473.2,936.1,474,931,474z"/>
	<path class="st0" d="M961.5,310.2c-2,0.5-3-2.8-2.6-4.2c0.5-2.1,4.3-4.7,5.6-6.4c0.9-1.1,6.9-10.8,7.4-8.7c0.2,1-1.6,4.5-1.9,5.7
		c-0.6,2.2-0.9,3.5-1.8,5.6C966.6,306.3,966.3,309.5,961.5,310.2z"/>
	<path class="st0" d="M1084,389.7c0.2,1.1,0.1,2.1-0.2,3.1c-0.1,0.2-5.1-4-4-5.7C1082.5,383.2,1084,387.7,1084,389.7z"/>
	<path class="st0" d="M1075.7,306.3C1071,300.6,1080.5,300.5,1075.7,306.3z"/>
	<path class="st0" d="M1084,333.1c-0.1,0.1-0.3,0.5-0.5,0.9c-1-0.7-0.3-2.2,0-3C1084.1,331.4,1084,332.1,1084,333.1z"/>
	<path class="st0" d="M948.6,357.9c0.6,0.8,0.6,1.5-0.1,2.1C947.8,359.2,947.9,358.5,948.6,357.9z"/>
	<path d="M840,523c-1.7,0.1-3-0.7-4-2C837.7,520.9,839.4,520.8,840,523z"/>
	<path d="M825.9,514.6c-0.3,0.6-2,0.5-1.7-0.3C824.6,513.4,825.6,514.2,825.9,514.6z"/>
	<path d="M834,520c0.8,0.2,1.9-0.5,2,1C835.2,520.8,834.1,521.5,834,520z"/>
	<path d="M818.8,510.4c-0.3,0.4-1.2,1.2-1.6,0.2C816.9,509.9,818.5,509.7,818.8,510.4z"/>
	<path d="M827.9,516.4c-0.1,0.2-0.2,0.4-0.4,0.6c-0.4-0.3-0.4-0.6,0-1C827.6,516.1,827.7,516.2,827.9,516.4z"/>
	<path d="M822.9,513.6c-0.5,0.5-1.2-0.3-0.9-0.6C822.4,512.9,822.7,513.1,822.9,513.6z"/>
	<path d="M820.6,512c-0.7-0.9,0.1-1,0.4,0C820.9,512,820.7,512,820.6,512z"/>
	<path d="M834,520c-0.7,0-1-0.3-1-1C833.7,519,834,519.3,834,520z"/>
	<path d="M822,513c-0.7,0-1-0.3-1-1C821.7,512,822,512.3,822,513z"/>
	<path d="M832.6,519c-0.7-0.9,0.1-1,0.4,0C832.9,519,832.7,519,832.6,519z"/>
	<path d="M830.6,517.9c-0.2-0.1-0.4-0.2-0.6-0.4c0.3-0.4,0.6-0.4,1,0C830.9,517.6,830.8,517.7,830.6,517.9z"/>
	<path d="M1052,322.3c0,8.3-9.4,11.6-16.2,12.3c-4.1,0.4-6.4-1.6-10.2-3.3c-4.3-1.9-7.1-1.9-9.6-6c-1.1-1.9-2.6-5.1-4.9-2.5
		c-0.6,0.7,0,3-0.3,4.1c-0.5,1.7-1.6,3.1-2.9,4.3c-2.1,1.8-7.3,3.9-10.1,2.9c-2.5-0.9-5.3-5.5-2.9-7.7c-0.4-3.5,4.8-6.3-0.6-7.4
		c-3.6-0.7-6.2,2.3-8.3,4.7c2.3,1.1,1,4.2,1.3,5.5c0.5,2.3,1.1,3.2,3.6,5c4.7,3.3,10.3,4.7,15.9,3.1c1.7-0.5,5.6-3.5,7.2-1.6
		c1.2,1.4-0.4,2.2-1.8,2.9c-4.7,2.7-10.5,1.9-15.5,1.4c-5.9-0.6-8.6-3.9-11.5-8.8c-1.4-2.3-3.3-4.5-2.7-7.4c0.5-2.6,3.8-4.4,3.6-6.8
		c-0.3-2.3-2.5-2.5-1.4-5.2c0.8-1.9,4.6-4.8,6.2-6.2c3.4-3,11.1-7.1,14.9-3c-2.4,1.4-19.8,4.8-16.8,11.2c1.2,2.6,10.3,2.1,12.6,2.3
		c5.6,0.6,8.3,2.2,13,4.5c4.5,2.1,4.3-0.9,7.8-4.4c3.2-3.1,7.3-5,11.8-5.2C1041.8,310.7,1053,312.4,1052,322.3z"/>
	<path d="M1029,408c-3,0.7-5.9-1.5-8.8-2c-3.2-0.5-6.4,0.2-9.6,0.1c-5.4-0.2-10.8-3.5-15.7-5.3c-1.3-0.5-5.4-2.2-3.6-4.4
		c1.2-1.5,5.3,0.1,7.1-0.6c5.7-2.2,8.6-8.2,13.1-11.5c2.2-1.6,3-1.3,5.5-0.2c1.3,0.5,1.9,1.5,3.4,1.9c1.5,0.4,3.1-0.3,4.6,0.1
		c2.6,0.7,3.3,2.8,5.7,3.7c2.7,1.1,6-0.3,8.9,0.3c5,1.1,8,5.8,5.8,10.6C1042.7,406.4,1034.6,408,1029,408z"/>
	<path d="M1003.9,380.9c-5.1,0.8-13.2-3.3-11.2-9.3c1.9-5.7,7.9-8,11.4-12.2c1.6-2,3-4.5,4.4-6.7c0.8-1.4,1.9-6.2,3.1-7
		c5.4-3.9,1.9,7.4,0.8,9.2c-3.3,5.2-7.8,9-12.1,13.3c-2.3,2.3-4.6,4-2,6.7c1.9,2,7.2,2.3,9.5,1.7c2.3-0.6,15.7-6.6,12.5,1.1
		c-1.3,3.2-4.8,2.3-7.6,2.4C1010.4,380.1,1006.2,381.8,1003.9,380.9z"/>
	<path d="M1035.9,296c7,0.7,15.2,2.8,20.8,7.3c1.7,1.4,4.9,4,2.3,6.2c-3,2.6-4.5-2-6-3.5c-4.8-4.4-12.3-3.8-18-5
		c-1.9-0.4-4.7-0.8-4.7-2.6C1030.3,295.2,1034,296,1035.9,296z"/>
	<path d="M1035,369c0.4,3-6.7,15.3-9,9.9c-1.7-3.9,6.2-7.4,3.1-12c-1.7-2.6-8.4-2.4-6.7-5.4C1025.5,355.9,1036.1,364.3,1035,369z"/>
	<path d="M953.9,320c3.3,0.3,5.4,3,4.2,5.5c-0.4,0.9-2.1,1-2.7,1.9c-0.3,0.4-0.3,2.4-0.4,2.5C950.2,334.4,948.4,320.1,953.9,320z"/>
	<path class="st0" d="M1038.2,330c-4,0.6-17.4-2.3-15-8.4c1.4-3.4,6.7-4.5,9.9-5.1c2.4-0.5,4.3-1.4,3.2,1.3
		c-1.2,3.1-4.9,2.3-2.2,6.8c0.7,1.2,3.1,3.3,4.4,3.8c7.3,2.8,9.8-6.1,5.8-10.8c-0.3-0.4,3,0.5,4,2.1c1,1.8,1.4,3.6,0.7,5.5
		C1047,330.1,1042.3,330,1038.2,330z"/>
	<path class="st0" d="M1007,325.9c-0.7,4.3-6.3,4.8-6.9-0.2C999.6,321.1,1007,320.5,1007,325.9z"/>
	<path class="st0" d="M1041,322.3c0,5-4,1.6-3.7-0.9C1037.8,317.2,1041,319,1041,322.3z"/>
	<path class="st0" d="M1030.4,404c-3.8-0.1-8.2-1.4-11.9-1.9c-3.1-0.4-6.1-0.7-9.3-1c-1.1-0.1-5.4-0.3-5.3-2.1
		c0.1-2.2,6.7-0.6,8.3-1.1c2.5-0.8,3.7-1.5,6.6-1.8c1-0.1,1.9-1,2.8-1.1c2.1-0.1,3,0.8,4.8,1.3c2.7,0.8,6,0,8.5-0.3
		c0.6-0.1,2.8-0.8,3.2-0.8c1.3,0,2.3,1.7,3.7,1.3c0,0.9,0.4,1.5,1.1,2.1C1040,401.7,1034.9,404,1030.4,404z"/>
	<path class="st0" d="M1017,390.3c0.3,2.3-6.2,3.8-6.9,1.8C1008.8,388.4,1017.1,384.7,1017,390.3z"/>
</g>
<path d="M906.8,567.3l2.6-5.5c1.1,3.1,1.5,5.3,1.6,8.6L906.8,567.3z"/>
</svg>
